<svg preserveAspectRatio="none" width="100%" height="100%" overflow="visible" style="display: block;" viewBox="0 0 256 41" fill="none" xmlns="http://www.w3.org/2000/svg">
<g id="logo with name - colored 1" clip-path="url(#clip0_0_110)">
<path id="Vector" d="M20.5226 0.000762064C21.4214 -0.00518377 22.2443 0.0236616 22.7801 0.0801613C23.2437 0.128352 23.9347 0.222547 24.3158 0.289179C24.697 0.356405 25.3333 0.490973 25.7307 0.589133C26.1281 0.687297 26.6291 0.823299 26.8447 0.891123C27.0602 0.958947 27.5068 1.10818 27.8378 1.22297C28.169 1.33839 28.8066 1.59245 29.2533 1.78759C29.7001 1.98331 30.3637 2.30479 30.7279 2.50286C31.0922 2.70038 31.7698 3.11017 32.2334 3.41358C32.697 3.71698 33.368 4.19491 33.7238 4.47632C34.0796 4.75705 34.7 5.302 35.1022 5.68631C35.5044 6.07057 36.0641 6.63941 36.3447 6.95061C36.6259 7.26172 37.0888 7.82398 37.3742 8.19993C37.6596 8.57595 38.1058 9.21854 38.3653 9.62777C38.6254 10.0371 39.0593 10.814 39.3303 11.3535C39.6019 11.8931 39.9544 12.6831 40.1139 13.1085C40.2735 13.5338 40.4934 14.1902 40.6036 14.5662C40.7132 14.9422 40.8849 15.6657 40.9848 16.1725C41.0848 16.6793 41.2142 17.5226 41.2726 18.0462C41.346 18.6994 41.3799 19.4751 41.3811 20.5157C41.3829 21.6584 41.3574 22.2158 41.2767 22.7762C41.2177 23.1855 41.1 23.8551 41.0151 24.2637C40.9307 24.6731 40.7441 25.4086 40.6002 25.8993C40.4569 26.3901 40.2047 27.1399 40.0397 27.5653C39.8748 27.9906 39.6052 28.6332 39.4402 28.9931C39.2758 29.3531 38.9716 29.9554 38.765 30.3321C38.5579 30.7087 38.1927 31.3104 37.9526 31.6703C37.7129 32.0302 37.3224 32.5654 37.0857 32.86C36.8492 33.1544 36.4188 33.6495 36.1304 33.9606C35.8414 34.2718 35.2938 34.8135 34.9127 35.1646C34.5316 35.5161 33.9492 36.013 33.6181 36.2694C33.2869 36.5258 32.7311 36.924 32.3839 37.1529C32.0364 37.3825 31.508 37.7121 31.2101 37.8852C30.9121 38.0583 30.343 38.3607 29.9457 38.557C29.5484 38.7533 28.912 39.0402 28.5308 39.195C28.1497 39.3496 27.4587 39.5987 26.9951 39.748C26.5315 39.8973 25.8133 40.1006 25.3996 40.2C24.9854 40.2993 24.4031 40.4213 24.105 40.4708C23.8069 40.5207 23.2106 40.6061 22.7801 40.6607C22.2991 40.7214 21.5567 40.76 20.8537 40.7612C20.1329 40.7624 19.3868 40.7249 18.8365 40.6594C18.356 40.6029 17.6518 40.5039 17.2712 40.4402C16.8907 40.376 16.2398 40.2413 15.8261 40.1396C15.4119 40.0373 14.653 39.8118 14.1401 39.6381C13.627 39.4649 12.7862 39.1388 12.2733 38.914C11.7603 38.6885 11.0554 38.3478 10.708 38.158C10.3606 37.9676 9.76365 37.6181 9.38317 37.3796C9.00262 37.1416 8.44701 36.7663 8.14895 36.5456C7.8509 36.3248 7.3384 35.9142 7.01023 35.6328C6.68207 35.3514 6.15855 34.8531 5.84608 34.526C5.53358 34.1987 4.97212 33.5292 4.59883 33.0384C4.22494 32.5476 3.71558 31.8516 3.46696 31.4918C3.21832 31.1319 2.85983 30.5835 2.66957 30.2723C2.47995 29.9613 2.21553 29.4931 2.08303 29.2313C1.95058 28.9696 1.72599 28.4739 1.58509 28.1306C1.44363 27.7874 1.21877 27.1718 1.08509 26.7624C0.951437 26.3538 0.760514 25.6975 0.659954 25.3048C0.560026 24.9122 0.423147 24.2834 0.355695 23.9068C0.288278 23.5303 0.191914 22.8883 0.140723 22.479C0.0895468 22.0703 0.0301013 21.2395 0.0102286 20.6345C-0.012046 19.9629 0.00191989 19.2091 0.045256 18.7011C0.084393 18.2429 0.170645 17.5332 0.236877 17.1239C0.30252 16.7152 0.424497 16.0858 0.508168 15.7259C0.591267 15.366 0.742193 14.7899 0.843334 14.4467C0.943891 14.1034 1.13477 13.528 1.26778 13.1682C1.40142 12.8083 1.63314 12.2461 1.78427 11.9188C1.93477 11.5917 2.21917 11.0294 2.41545 10.6694C2.61234 10.3096 3.02612 9.64 3.3344 9.18191C3.64329 8.72383 4.13513 8.05428 4.42712 7.69438C4.71922 7.33434 5.35058 6.64112 5.83097 6.15456C6.31077 5.668 7.01567 5.01146 7.39622 4.69551C7.7767 4.38024 8.35966 3.9305 8.69084 3.69725C9.02196 3.46346 9.59099 3.09387 9.9553 2.87611C10.3195 2.65836 10.9972 2.29546 11.4608 2.07058C11.9244 1.8457 12.656 1.52528 13.0864 1.3587C13.517 1.19152 14.2759 0.937627 14.7726 0.795433C15.2693 0.652663 16.001 0.468986 16.3983 0.386902C16.7957 0.305401 17.4594 0.195702 17.8736 0.143952C18.2871 0.0922097 18.7343 0.0412448 18.8667 0.0299431C18.9991 0.0192343 19.7441 0.00611648 20.5226 0.000762064ZM24.7767 26.2141C24.1758 26.7192 23.0064 27.6699 22.1785 28.3267C21.3506 28.9841 20.3752 29.7413 20.0109 30.009C19.6466 30.2768 18.969 30.7406 18.5054 31.0398C18.0417 31.3391 17.1616 31.8349 16.5487 32.1413C15.9358 32.4477 15.0422 32.8463 14.5618 33.0289C14.0813 33.211 13.323 33.452 12.8756 33.565C12.4283 33.678 11.8192 33.8034 11.5212 33.8433C11.1648 33.8909 10.567 33.9047 9.77533 33.8833C8.88545 33.8595 8.43709 33.8203 8.059 33.734C7.77719 33.6692 7.44538 33.5733 7.32139 33.5209C7.195 33.4675 7.09542 33.4516 7.09542 33.485C7.09549 33.5178 7.37329 33.7973 7.71284 34.1066C8.05246 34.416 8.57417 34.8624 8.87215 35.0981C9.17021 35.3336 9.68467 35.705 10.0157 35.9233C10.3469 36.1416 10.8619 36.4627 11.16 36.6358C11.458 36.8083 11.9457 37.0705 12.2438 37.2181C12.5418 37.365 13.1108 37.6174 13.5081 37.778C13.9056 37.9392 14.5692 38.1788 14.9835 38.3121C15.397 38.4447 16.074 38.6299 16.4882 38.7233C16.9019 38.8161 17.5261 38.9333 17.8736 38.9839C18.221 39.0339 18.8579 39.1058 19.2884 39.1427C19.7484 39.1825 20.5181 39.1961 21.1552 39.1752C21.7512 39.1562 22.5501 39.099 22.9313 39.049C23.3123 38.9991 23.8541 38.917 24.1352 38.8658C24.4163 38.8153 25.0533 38.6709 25.5501 38.5441C26.0468 38.4174 26.8057 38.1893 27.2362 38.0358C27.6667 37.8823 28.4256 37.5635 28.9223 37.3274C29.419 37.0912 30.11 36.7283 30.4573 36.5218C30.8047 36.3154 31.3064 35.9983 31.5713 35.8174C31.8363 35.6366 32.3779 35.231 32.7753 34.9175C33.1727 34.604 33.8369 34.013 34.2506 33.6037C34.6648 33.1951 35.2753 32.5262 35.6078 32.1168C35.9395 31.7081 36.4187 31.0656 36.6709 30.689C36.9232 30.3125 37.2782 29.737 37.4601 29.4098C37.6419 29.0827 37.9188 28.5342 38.0748 28.1903C38.2307 27.8471 38.4098 27.4383 38.4724 27.283C38.5351 27.1277 38.6405 26.8663 38.7066 26.7027L38.8268 26.4055C38.337 26.7159 38.019 26.8936 37.8035 27.0007C37.588 27.1077 37.1815 27.274 36.9004 27.3699C36.6192 27.465 36.0768 27.6109 35.6957 27.6936C35.1503 27.8113 34.7671 27.8505 33.8893 27.8754C33.1843 27.8963 32.5439 27.8812 32.1435 27.8354C31.796 27.7955 31.2131 27.689 30.8488 27.5986C30.4846 27.5081 29.7942 27.2801 29.3138 27.0916C28.8333 26.903 28.129 26.5924 27.7479 26.4014C27.3668 26.2105 26.7892 25.8841 26.4629 25.6753L25.8694 25.296L24.7767 26.2141ZM11.1902 15.844C10.4789 15.8333 9.82822 15.8366 9.74509 15.8508C9.66266 15.8657 9.32346 15.9192 8.99235 15.9709C8.66124 16.0227 8.0922 16.1546 7.72796 16.2634C7.36365 16.3723 6.83529 16.5591 6.5535 16.6787C6.27168 16.7978 5.79789 17.0377 5.49992 17.2108C5.20187 17.3839 4.74144 17.6938 4.47657 17.8996C4.21165 18.1055 3.79366 18.4774 3.548 18.7255C3.30233 18.9736 2.91327 19.4177 2.68331 19.7122C2.45393 20.0067 2.11705 20.4886 1.93399 20.783L1.60226 21.3185C1.70883 22.3328 1.79521 22.9626 1.86325 23.3714C1.93069 23.7806 2.06819 24.4358 2.16751 24.8283C2.26686 25.221 2.44501 25.8372 2.56242 26.1972C2.68045 26.5571 2.89622 27.1332 3.04251 27.4764C3.18823 27.8202 3.45094 28.3687 3.62493 28.6959C3.79895 29.0231 4.1025 29.5445 4.29938 29.855C4.61117 30.3462 4.72278 30.4665 5.16888 30.7895C5.45067 30.9935 5.89779 31.2781 6.1627 31.4226C6.42765 31.5672 6.88806 31.781 7.18607 31.8977C7.48406 32.0143 8.01244 32.1692 8.3598 32.2424C8.87159 32.3495 9.18674 32.3747 10.0157 32.3747C10.7142 32.3747 11.212 32.3434 11.5817 32.2756C11.8797 32.2215 12.3675 32.1119 12.6655 32.0334C12.9635 31.9548 13.4779 31.7903 13.809 31.669C14.1401 31.5476 14.8178 31.2519 15.3145 31.0127C15.8112 30.7729 16.5428 30.3859 16.9402 30.1515C17.3376 29.9177 17.9199 29.5482 18.2348 29.3311C18.5497 29.1145 19.1861 28.6572 19.6497 28.3152C20.1133 27.9737 20.8314 27.4248 21.2451 27.097C21.6594 26.7692 22.5802 26.0211 23.2925 25.4351L24.5872 24.3689C23.7002 23.6562 23.1578 23.2002 22.8104 22.8956C22.4627 22.5915 21.5008 21.7105 20.673 20.9385C19.8451 20.1657 18.9917 19.3707 18.7767 19.1713C18.5618 18.972 18.1553 18.6139 17.8736 18.376C17.5918 18.1374 17.0767 17.7571 16.7293 17.5304C16.382 17.3038 15.8263 16.9882 15.4951 16.8294C15.164 16.6705 14.6083 16.4428 14.2609 16.3238C13.9135 16.2048 13.3711 16.0531 13.0563 15.9858C12.6036 15.8895 12.2146 15.8595 11.1902 15.844ZM39.6998 18.6108C38.6266 18.6215 38.0848 18.6579 37.8035 18.6983C37.5223 18.7388 37.0746 18.8183 36.8097 18.8754C36.5448 18.9332 35.9891 19.0881 35.5755 19.2202C35.1613 19.3522 34.5383 19.5801 34.1908 19.7264C33.8435 19.8734 33.3418 20.1004 33.0768 20.2307C32.812 20.3609 32.1883 20.7061 31.6915 20.9982C31.1948 21.2903 30.4584 21.7631 30.0556 22.0487C29.6527 22.3344 28.8464 22.936 28.2644 23.3856C27.6821 23.8354 27.206 24.2311 27.206 24.2637C27.2075 24.2973 27.4715 24.4773 27.7932 24.6641C28.116 24.8516 28.7196 25.1441 29.1331 25.3143C29.5474 25.485 30.2105 25.7212 30.6077 25.8395C31.0052 25.9585 31.6422 26.1104 32.0233 26.1788C32.5344 26.2698 32.9834 26.3042 33.739 26.3078C34.4765 26.3114 34.9062 26.2847 35.2746 26.2121C35.5557 26.1567 35.9755 26.0542 36.2073 25.9841C36.4391 25.9139 36.8329 25.7588 37.081 25.6387C37.3296 25.5185 37.6948 25.3145 37.8935 25.186C38.0922 25.0575 38.5418 24.6705 38.8928 24.3255L39.5315 23.6985C39.6411 22.8227 39.6987 22.2334 39.73 21.8241C39.7619 21.4153 39.7878 20.786 39.7884 20.4261C39.789 20.0662 39.7691 19.5105 39.7444 19.191L39.6998 18.6108ZM19.4992 1.57858C19.2843 1.58869 18.7286 1.63795 18.265 1.68851C17.8014 1.73848 17.0152 1.86205 16.5185 1.96199C16.0218 2.06194 15.2501 2.26027 14.8028 2.40242C14.3555 2.54462 13.7251 2.7699 13.4024 2.90258C13.0796 3.03527 12.4972 3.30031 12.1084 3.49298C11.7195 3.68511 11.1439 3.99573 10.8289 4.18315C10.514 4.37115 9.98561 4.71534 9.65443 4.94796C9.32325 5.18063 8.74029 5.62894 8.3598 5.94419C7.97932 6.25951 7.35571 6.83656 6.9752 7.22677C6.59467 7.61648 6.04409 8.22946 5.75268 8.5888C5.46185 8.94759 5.02405 9.53597 4.78083 9.89587C4.53758 10.2558 4.17267 10.8451 3.97039 11.2049C3.76808 11.5649 3.45609 12.1805 3.27671 12.573C3.09791 12.9657 2.82654 13.6483 2.673 14.0898C2.52008 14.5318 2.3158 15.2145 2.21765 15.6072C2.12011 15.9998 1.97175 16.716 1.88866 17.1985C1.80511 17.6802 1.7371 18.1282 1.73688 18.1948C1.73688 18.2811 1.9136 18.1378 2.38386 17.6695C2.7397 17.3156 3.27537 16.8484 3.57341 16.6312C3.87138 16.4141 4.39916 16.0691 4.74718 15.8644C5.09518 15.6597 5.6915 15.3622 6.07204 15.2034C6.45257 15.0446 7.02156 14.8389 7.33644 14.7467C7.65137 14.6544 8.17976 14.5241 8.51094 14.4569C8.84212 14.3903 9.37719 14.3074 9.69979 14.2723C10.0225 14.2378 10.6867 14.2092 11.175 14.2092C11.6633 14.2092 12.293 14.2379 12.5748 14.273C12.8566 14.3081 13.4389 14.4252 13.8694 14.5329C14.2999 14.6406 14.9642 14.8546 15.3447 15.0086C15.7252 15.1621 16.2669 15.412 16.5487 15.563C16.8304 15.7147 17.3721 16.0454 17.7527 16.2994C18.1332 16.5528 18.7161 16.9869 19.0473 17.2623C19.3785 17.5384 20.3952 18.4685 21.3055 19.3288C22.2166 20.1897 23.3132 21.2147 23.7437 21.6055C24.1743 21.9971 24.8046 22.5405 25.1442 22.8142C25.4835 23.0877 25.7747 23.3115 25.7912 23.3116C25.8074 23.3116 25.9906 23.169 26.1977 22.9947C26.405 22.8209 26.9401 22.3964 27.3866 22.0521C27.8334 21.7076 28.457 21.238 28.7719 21.0084C29.0869 20.7793 29.6959 20.363 30.1263 20.0841C30.5567 19.8051 31.275 19.3829 31.7218 19.1455C32.1684 18.9082 32.738 18.6221 32.9862 18.509C33.2348 18.3966 33.6413 18.2229 33.8893 18.1235C34.1379 18.0242 34.6118 17.8513 34.9429 17.7401C35.2741 17.6283 35.8024 17.4725 36.1174 17.394C36.4322 17.3149 36.9467 17.2067 37.2616 17.1538C37.5766 17.1003 38.1996 17.0306 38.6462 16.999C39.093 16.9669 39.4646 16.9356 39.4717 16.9285C39.478 16.9199 39.4175 16.6204 39.3358 16.2614C39.2545 15.9014 39.0771 15.2457 38.9422 14.8037C38.8073 14.3623 38.5742 13.6927 38.4237 13.3168C38.2726 12.9408 37.9898 12.3181 37.7952 11.9338C37.6008 11.5494 37.2682 10.9464 37.0569 10.5948C36.845 10.2433 36.5173 9.7409 36.3282 9.47913C36.1385 9.21742 35.7868 8.76246 35.5459 8.46803C35.3051 8.17352 34.854 7.66776 34.5439 7.34352C34.2338 7.01989 33.7088 6.52402 33.3777 6.24143C33.0466 5.95888 32.5188 5.53603 32.2039 5.3022C31.889 5.0684 31.3466 4.7011 30.9992 4.48513C30.6518 4.26918 30.0009 3.90856 29.5542 3.68368C29.1074 3.45821 28.4705 3.16309 28.1393 3.02745C27.8082 2.8918 27.1713 2.66414 26.7245 2.52254C26.2778 2.38037 25.5456 2.18267 25.0988 2.08212C24.6521 1.98157 23.9065 1.84549 23.4429 1.77945C22.9793 1.71401 22.1664 1.63284 21.6366 1.59893C21.1068 1.56502 20.4965 1.54209 20.2815 1.54803C20.0666 1.55458 19.7141 1.56846 19.4992 1.57858Z" fill="var(--fill-0, #0B4636)"/>
<path id="Vector_2" d="M65.425 6.36572V8.64551H57.7074V33.8416H54.9227V8.64551H47.1653V6.36572H65.425ZM80.1653 11.9867C81.8096 11.9867 83.2816 12.3273 84.5813 13.0087C85.907 13.69 86.9415 14.7382 87.6842 16.1532C88.4529 17.5421 88.8376 19.2454 88.8376 21.2632V33.8416H86.0927V21.5777C86.0927 19.2454 85.4963 17.4635 84.3028 16.2319C83.1353 15.0002 81.5311 14.3844 79.4887 14.3844C77.3936 14.3844 75.7233 15.0396 74.4763 16.3498C73.2301 17.66 72.6069 19.5861 72.6069 22.128V33.8416H69.8221V4.75411H72.6069V16.0353C73.2962 14.7513 74.304 13.7555 75.6304 13.0479C76.9829 12.3404 78.4942 11.9867 80.1653 11.9867ZM97.7807 16.1926C98.3912 14.8561 99.3196 13.821 100.566 13.0873C101.839 12.3535 103.39 11.9867 105.22 11.9867V14.8561H104.464C102.449 14.8561 100.831 15.3933 99.6107 16.4677C98.3912 17.5421 97.7807 19.3371 97.7807 21.8528V33.8416H94.9964V12.3798H97.7807V16.1926ZM129.061 22.0101C129.061 22.9534 129.035 23.6741 128.982 24.1719H110.961C111.04 25.7966 111.438 27.1855 112.154 28.3386C112.87 29.4916 113.812 30.3694 114.978 30.9722C116.146 31.5487 117.419 31.8369 118.798 31.8369C120.601 31.8369 122.113 31.4045 123.333 30.5398C124.579 29.675 125.401 28.5089 125.799 27.0414H128.743C128.212 29.1378 127.072 30.8542 125.322 32.1907C123.598 33.5009 121.423 34.1561 118.798 34.1561C116.756 34.1561 114.926 33.7105 113.308 32.8196C111.69 31.9024 110.417 30.6184 109.489 28.9675C108.587 27.2904 108.136 25.3381 108.136 23.1107C108.136 20.8832 108.587 18.9309 109.489 17.2538C110.391 15.5767 111.65 14.2927 113.268 13.4017C114.886 12.5108 116.729 12.0653 118.798 12.0653C120.866 12.0653 122.67 12.5108 124.208 13.4017C125.773 14.2927 126.966 15.4981 127.788 17.018C128.637 18.5117 129.061 20.1757 129.061 22.0101ZM126.237 21.9315C126.264 20.3329 125.932 18.9703 125.242 17.8435C124.579 16.7167 123.664 15.865 122.497 15.2885C121.331 14.712 120.058 14.4237 118.679 14.4237C116.609 14.4237 114.846 15.0788 113.388 16.3891C111.929 17.6994 111.12 19.5468 110.961 21.9315H126.237ZM132.883 23.0713C132.883 20.8701 133.32 18.9441 134.196 17.2932C135.098 15.6161 136.331 14.332 137.895 13.441C139.487 12.5239 141.277 12.0653 143.266 12.0653C145.335 12.0653 147.111 12.537 148.597 13.4804C150.109 14.4237 151.196 15.6291 151.859 17.0967V12.3798H154.644V33.8416H151.859V29.0854C151.169 30.5529 150.069 31.7714 148.557 32.741C147.072 33.6843 145.295 34.1561 143.226 34.1561C141.263 34.1561 139.487 33.6975 137.895 32.7803C136.331 31.8631 135.098 30.566 134.196 28.8889C133.32 27.2117 132.883 25.2725 132.883 23.0713ZM151.859 23.1107C151.859 21.3812 151.501 19.8612 150.785 18.551C150.069 17.2408 149.088 16.2319 147.841 15.5243C146.621 14.8168 145.269 14.4631 143.783 14.4631C142.245 14.4631 140.866 14.8037 139.646 15.485C138.426 16.1664 137.458 17.1621 136.742 18.4724C136.053 19.7564 135.707 21.2894 135.707 23.0713C135.707 24.8271 136.053 26.3731 136.742 27.7096C137.458 29.0199 138.426 30.0287 139.646 30.7363C140.866 31.4176 142.245 31.7583 143.783 31.7583C145.269 31.7583 146.621 31.4045 147.841 30.697C149.088 29.9895 150.069 28.9805 150.785 27.6703C151.501 26.3601 151.859 24.8402 151.859 23.1107ZM159.728 23.0713C159.728 20.8701 160.179 18.9441 161.08 17.2932C161.982 15.6161 163.215 14.332 164.78 13.441C166.371 12.5239 168.162 12.0653 170.151 12.0653C172.06 12.0653 173.784 12.5239 175.322 13.441C176.86 14.3582 177.988 15.5505 178.703 17.018V4.75411H181.489V33.8416H178.703V29.0461C178.041 30.5398 176.953 31.7714 175.442 32.741C173.93 33.6843 172.153 34.1561 170.111 34.1561C168.122 34.1561 166.332 33.6975 164.74 32.7803C163.175 31.8631 161.943 30.566 161.041 28.8889C160.165 27.2117 159.728 25.2725 159.728 23.0713ZM178.703 23.1107C178.703 21.3812 178.346 19.8612 177.63 18.551C176.914 17.2408 175.932 16.2319 174.686 15.5243C173.466 14.8168 172.113 14.4631 170.628 14.4631C169.09 14.4631 167.711 14.8037 166.491 15.485C165.271 16.1664 164.303 17.1621 163.587 18.4724C162.897 19.7564 162.552 21.2894 162.552 23.0713C162.552 24.8271 162.897 26.3731 163.587 27.7096C164.303 29.0199 165.271 30.0287 166.491 30.7363C167.711 31.4176 169.09 31.7583 170.628 31.7583C172.113 31.7583 173.466 31.4045 174.686 30.697C175.932 29.9895 176.914 28.9805 177.63 27.6703C178.346 26.3601 178.703 24.8402 178.703 23.1107ZM190.63 4.75411V33.8416H187.846V4.75411H190.63ZM198.329 8.33106C197.772 8.33106 197.294 8.13454 196.896 7.74149C196.499 7.34838 196.3 6.86361 196.3 6.2871C196.3 5.71059 196.499 5.2389 196.896 4.87203C197.294 4.47896 197.772 4.28242 198.329 4.28242C198.885 4.28242 199.363 4.47896 199.761 4.87203C200.159 5.2389 200.357 5.71059 200.357 6.2871C200.357 6.86361 200.159 7.34838 199.761 7.74149C199.363 8.13454 198.885 8.33106 198.329 8.33106ZM199.721 12.3798V33.8416H196.936V12.3798H199.721ZM216.211 11.9867C218.81 11.9867 220.932 12.7859 222.576 14.3844C224.22 15.9567 225.042 18.2497 225.042 21.2632V33.8416H222.297V21.5777C222.297 19.2454 221.701 17.4635 220.507 16.2319C219.341 15.0002 217.736 14.3844 215.694 14.3844C213.599 14.3844 211.928 15.0396 210.682 16.3498C209.435 17.66 208.812 19.5861 208.812 22.128V33.8416H206.027V12.3798H208.812V16.0353C209.502 14.7251 210.496 13.7293 211.795 13.0479C213.095 12.3404 214.567 11.9867 216.211 11.9867ZM250.853 22.0101C250.853 22.9534 250.827 23.6741 250.774 24.1719H232.753C232.832 25.7966 233.23 27.1855 233.946 28.3386C234.662 29.4916 235.604 30.3694 236.77 30.9722C237.937 31.5487 239.21 31.8369 240.589 31.8369C242.393 31.8369 243.905 31.4045 245.125 30.5398C246.371 29.675 247.193 28.5089 247.591 27.0414H250.535C250.004 29.1378 248.864 30.8542 247.114 32.1907C245.39 33.5009 243.215 34.1561 240.589 34.1561C238.548 34.1561 236.718 33.7105 235.1 32.8196C233.482 31.9024 232.209 30.6184 231.281 28.9675C230.379 27.2904 229.928 25.3381 229.928 23.1107C229.928 20.8832 230.379 18.9309 231.281 17.2538C232.182 15.5767 233.442 14.2927 235.06 13.4017C236.678 12.5108 238.521 12.0653 240.589 12.0653C242.658 12.0653 244.462 12.5108 246 13.4017C247.565 14.2927 248.758 15.4981 249.58 17.018C250.429 18.5117 250.853 20.1757 250.853 22.0101ZM248.029 21.9315C248.056 20.3329 247.724 18.9703 247.034 17.8435C246.371 16.7167 245.456 15.865 244.289 15.2885C243.123 14.712 241.85 14.4237 240.471 14.4237C238.401 14.4237 236.638 15.0788 235.18 16.3891C233.721 17.6994 232.911 19.5468 232.753 21.9315H248.029Z" fill="var(--fill-0, #0B4636)"/>
</g>
<defs>
<clipPath id="clip0_0_110">
<rect width="256" height="41" fill="white"/>
</clipPath>
</defs>
</svg>
